<svg xmlns="http://www.w3.org/2000/svg" width="1200" height="800" viewBox="0 0 1200 800">
<defs>
  <linearGradient id="bg" x1="0" x2="1" y1="0" y2="1">
    <stop offset="0%" stop-color="#fff7b3"/>
    <stop offset="100%" stop-color="#f4b548"/>
  </linearGradient>
  <radialGradient id="sun" cx="50%" cy="36%" r="35%">
    <stop offset="0%" stop-color="#fffef9" stop-opacity="0.95"/>
    <stop offset="100%" stop-color="#fffef9" stop-opacity="0"/>
  </radialGradient>
</defs>
<rect width="1200" height="800" rx="40" fill="url(#bg)"/>
<circle cx="600" cy="290" r="230" fill="url(#sun)"/>
<path d="M0 680 C160 620, 340 740, 520 690 C710 640, 920 740, 1200 660 L1200 800 L0 800 Z" fill="#cfe97a"/>
<path d="M0 710 C180 670, 340 790, 560 720 C770 655, 980 760, 1200 705 L1200 800 L0 800 Z" fill="#9fce00"/>
<g opacity="0.22">
  <circle cx="130" cy="130" r="28" fill="#fff"/>
  <circle cx="1070" cy="150" r="24" fill="#fff"/>
  <circle cx="980" cy="520" r="20" fill="#fff"/>
</g>
<image href="cleverland-logo.png" x="440" y="130" width="320" height="320" preserveAspectRatio="xMidYMid meet"/>
<text x="600" y="520" text-anchor="middle" font-size="70" font-family="Arial, sans-serif" font-weight="700" fill="#ffffff">Cleverland</text>
<text x="600" y="585" text-anchor="middle" font-size="30" font-family="Arial, sans-serif" fill="#f9fff0">Preschool Childcare and Tutorials</text>
<text x="600" y="120" text-anchor="middle" font-size="48" font-family="Arial, sans-serif" fill="#fff">❤</text>
</svg>